<svg xmlns="http://www.w3.org/2000/svg" xmlns:xlink="http://www.w3.org/1999/xlink" zoomAndPan="magnify" preserveAspectRatio="xMidYMid meet" version="1.0" viewBox="94.7 73.18 109.51 78.75"><defs><g/><clipPath id="dfa4ad4fb2"><path d="M 139 73.179688 L 184.695312 73.179688 L 184.695312 119 L 139 119 Z M 139 73.179688 " clip-rule="nonzero"/></clipPath><clipPath id="649842db3c"><path d="M 94.695312 73.179688 L 159 73.179688 L 159 151.929688 L 94.695312 151.929688 Z M 94.695312 73.179688 " clip-rule="nonzero"/></clipPath></defs><g clip-path="url(#dfa4ad4fb2)"><path fill="#8ddfff" d="M 139.242188 87.292969 C 140.417969 87.359375 141.5625 87.242188 142.675781 87.066406 C 143.785156 86.875 144.84375 86.546875 145.847656 86.160156 C 147.835938 85.320312 149.550781 84.09375 150.902344 82.554688 C 151.574219 81.777344 152.175781 80.949219 152.707031 80.058594 C 152.839844 79.835938 152.972656 79.625 153.089844 79.390625 L 153.273438 79.046875 L 153.367188 78.875 L 153.410156 78.792969 L 153.539062 78.605469 L 153.921875 78.089844 L 154.230469 77.695312 C 154.441406 77.441406 154.65625 77.1875 154.890625 76.933594 C 155.367188 76.425781 155.816406 75.929688 156.679688 75.386719 C 156.867188 75.261719 157.175781 75.09375 157.257812 75.050781 L 157.683594 74.828125 C 158.023438 74.664062 158.339844 74.535156 158.65625 74.402344 C 159.949219 73.894531 161.328125 73.542969 162.761719 73.433594 C 165.628906 73.195312 168.585938 73.980469 170.972656 75.394531 C 173.386719 76.796875 175.300781 78.6875 176.898438 80.6875 C 178.484375 82.707031 179.757812 84.855469 180.84375 87.054688 C 181.40625 88.144531 181.875 89.273438 182.339844 90.390625 C 182.804688 91.507812 183.195312 92.648438 183.585938 93.78125 L 183.65625 93.976562 L 183.660156 93.996094 C 183.753906 94.371094 183.917969 95.023438 184.03125 95.53125 C 184.148438 96.066406 184.230469 96.609375 184.316406 97.148438 C 184.476562 98.230469 184.59375 99.304688 184.644531 100.375 C 184.6875 101.453125 184.703125 102.523438 184.65625 103.59375 C 184.589844 104.65625 184.511719 105.714844 184.367188 106.761719 C 184.316406 107.289062 184.222656 107.808594 184.132812 108.328125 C 184.046875 108.847656 183.964844 109.367188 183.828125 109.878906 C 183.582031 110.902344 183.332031 111.917969 183.007812 112.914062 C 182.722656 113.914062 182.308594 114.875 181.933594 115.839844 C 181.765625 116.324219 181.515625 116.785156 181.292969 117.25 L 180.601562 118.636719 C 180.683594 117.597656 180.832031 116.59375 180.90625 115.578125 L 181.027344 114.074219 C 181.082031 113.578125 181.0625 113.0625 181.097656 112.570312 C 181.167969 111.578125 181.160156 110.578125 181.152344 109.589844 C 181.164062 109.097656 181.105469 108.605469 181.109375 108.117188 C 181.097656 107.625 181.089844 107.136719 181.039062 106.648438 C 180.984375 105.671875 180.871094 104.707031 180.746094 103.75 C 180.601562 102.792969 180.472656 101.84375 180.277344 100.902344 C 180.078125 99.96875 179.882812 99.046875 179.621094 98.140625 C 179.496094 97.691406 179.351562 97.242188 179.210938 96.804688 C 179.066406 96.335938 178.941406 96.011719 178.730469 95.425781 L 178.804688 95.636719 C 177.875 93.59375 176.917969 91.585938 175.84375 89.679688 C 175.324219 88.722656 174.761719 87.796875 174.171875 86.90625 C 173.597656 86.003906 172.976562 85.15625 172.332031 84.339844 C 171.03125 82.734375 169.597656 81.316406 168.027344 80.335938 C 166.457031 79.34375 164.773438 78.796875 163.007812 78.785156 C 162.121094 78.78125 161.214844 78.894531 160.316406 79.152344 L 159.671875 79.355469 C 159.585938 79.375 159.433594 79.441406 159.300781 79.488281 C 159.117188 79.554688 159.179688 79.542969 159.125 79.570312 C 158.984375 79.609375 158.578125 79.921875 158.25 80.234375 C 158.078125 80.394531 157.90625 80.574219 157.730469 80.75 L 157.320312 81.183594 L 157.289062 81.226562 L 157.265625 81.25 L 157.261719 81.257812 C 157.289062 81.21875 157.191406 81.363281 157.316406 81.175781 L 157.246094 81.273438 L 157.097656 81.464844 L 156.8125 81.855469 C 156.625 82.117188 156.414062 82.359375 156.207031 82.613281 C 155.382812 83.601562 154.460938 84.53125 153.410156 85.3125 C 151.355469 86.910156 148.890625 87.984375 146.386719 88.292969 C 145.144531 88.472656 143.894531 88.445312 142.691406 88.28125 C 141.488281 88.125 140.304688 87.808594 139.242188 87.292969 Z M 139.242188 87.292969 " fill-opacity="1" fill-rule="nonzero"/></g><path fill="#d1d3d4" d="M 123.808594 88.609375 C 123.648438 88.421875 121.832031 86.257812 121.832031 86.257812 L 121.824219 86.261719 L 121.386719 85.746094 L 121.070312 85.402344 L 120.835938 85.167969 C 120.722656 85.054688 120.613281 84.933594 120.492188 84.835938 L 120.324219 84.6875 C 119.988281 84.382812 119.570312 84.089844 119.082031 83.816406 C 118.527344 83.515625 117.976562 83.355469 117.464844 83.355469 C 117.375 83.355469 117.28125 83.359375 117.195312 83.371094 L 116.929688 83.398438 C 116.742188 83.445312 116.617188 83.476562 116.488281 83.503906 C 116.414062 83.515625 116.359375 83.527344 116.316406 83.539062 L 115.246094 83.96875 L 114.074219 84.648438 L 112.695312 85.707031 C 112.476562 85.875 112.160156 86.1875 111.824219 86.515625 C 111.535156 86.808594 111.238281 87.097656 110.945312 87.371094 C 109.988281 88.273438 109.191406 89.519531 108.480469 90.730469 C 107.707031 91.996094 107.105469 93.375 106.449219 95.070312 C 106.199219 95.847656 105.949219 96.625 105.722656 97.410156 L 105.171875 99.910156 L 104.820312 102.460938 L 104.601562 105.375 C 104.5625 105.707031 104.578125 106.175781 104.59375 106.671875 C 104.597656 107.089844 104.605469 107.503906 104.597656 107.917969 L 104.609375 109.097656 L 104.726562 110.402344 L 104.980469 113.152344 C 105.144531 114.113281 105.304688 115.074219 105.449219 116.046875 L 105.640625 117.332031 L 105.730469 117.710938 C 111.816406 119.042969 112.816406 102.707031 113.230469 101.699219 C 117.074219 92.355469 127.234375 92.632812 123.808594 88.609375 Z M 123.808594 88.609375 " fill-opacity="1" fill-rule="nonzero"/><g clip-path="url(#649842db3c)"><path fill="#008cce" d="M 158.488281 87.441406 C 157.957031 88 157.378906 88.511719 156.777344 89 C 156.171875 89.480469 155.550781 89.953125 154.898438 90.375 C 154.257812 90.835938 153.558594 91.183594 152.882812 91.582031 C 152.191406 91.96875 151.457031 92.253906 150.738281 92.597656 C 150.003906 92.90625 149.230469 93.117188 148.46875 93.375 C 147.695312 93.582031 146.894531 93.710938 146.09375 93.878906 C 145.296875 94.011719 144.476562 94.015625 143.652344 94.082031 C 142.828125 94.171875 142.003906 94.003906 141.171875 93.945312 C 140.335938 93.910156 139.539062 93.667969 138.726562 93.457031 C 137.910156 93.25 137.09375 93.039062 136.355469 92.65625 C 135.601562 92.308594 134.8125 91.996094 134.070312 91.605469 L 131.988281 90.234375 C 131.265625 89.792969 130.660156 89.246094 130.0625 88.679688 L 128.242188 87.003906 C 127.667969 86.417969 127.179688 85.777344 126.648438 85.160156 L 125.078125 83.285156 L 125.191406 83.433594 L 124.683594 82.828125 L 124.234375 82.34375 C 123.910156 82.035156 123.613281 81.710938 123.28125 81.4375 C 122.632812 80.847656 121.929688 80.371094 121.210938 79.96875 C 119.773438 79.179688 118.25 78.835938 116.734375 78.992188 C 116.355469 78.972656 115.976562 79.117188 115.597656 79.191406 C 115.214844 79.265625 114.835938 79.351562 114.457031 79.542969 L 113.316406 80 L 112.195312 80.652344 L 111.636719 80.96875 L 111.101562 81.386719 L 110.023438 82.214844 C 109.304688 82.769531 108.671875 83.492188 107.976562 84.121094 C 106.644531 85.386719 105.652344 86.875 104.695312 88.488281 C 103.722656 90.078125 102.992188 91.832031 102.300781 93.59375 C 102.015625 94.5 101.730469 95.40625 101.464844 96.324219 L 100.847656 99.132812 L 100.449219 101.996094 L 100.234375 104.90625 C 100.132812 105.871094 100.226562 106.855469 100.207031 107.832031 L 100.21875 109.308594 L 100.34375 110.78125 L 100.621094 113.734375 C 100.789062 114.714844 100.953125 115.691406 101.101562 116.679688 L 101.324219 118.164062 L 101.660156 119.625 L 102.335938 122.5625 C 102.511719 123.4375 102.917969 124.507812 103.1875 125.46875 L 104.082031 128.453125 C 105.355469 132.339844 106.546875 136.277344 107.882812 140.191406 C 108.574219 142.136719 109.140625 144.148438 109.851562 146.082031 C 110.589844 147.996094 111.296875 149.941406 112 151.925781 C 110.898438 150.179688 109.800781 148.402344 108.734375 146.59375 C 107.675781 144.777344 106.777344 142.910156 105.835938 141.050781 C 104.90625 139.183594 103.933594 137.332031 103.097656 135.410156 L 100.519531 129.671875 C 99.707031 127.726562 98.929688 125.917969 98.195312 123.824219 L 97.226562 120.769531 L 96.742188 119.238281 L 96.371094 117.675781 C 96.113281 116.625 95.882812 115.574219 95.652344 114.519531 C 95.476562 113.453125 95.347656 112.378906 95.191406 111.304688 L 94.976562 109.6875 L 94.878906 108.054688 C 94.84375 106.964844 94.699219 105.878906 94.753906 104.78125 C 94.789062 103.683594 94.789062 102.578125 94.855469 101.480469 L 95.257812 98.183594 C 95.453125 97.089844 95.699219 96.003906 95.921875 94.914062 C 96.210938 93.835938 96.53125 92.757812 96.859375 91.691406 C 97.636719 89.585938 98.46875 87.476562 99.65625 85.519531 C 100.820312 83.597656 102.203125 81.636719 103.898438 80.066406 C 104.742188 79.304688 105.5 78.484375 106.425781 77.785156 L 107.828125 76.738281 L 108.535156 76.222656 L 109.324219 75.78125 C 111.320312 74.5 113.84375 73.699219 116.425781 73.5625 C 119.046875 73.421875 121.699219 74.210938 123.808594 75.53125 C 124.867188 76.1875 125.839844 76.945312 126.6875 77.792969 C 127.128906 78.195312 127.519531 78.648438 127.902344 79.105469 L 128.449219 79.800781 C 128.628906 80.050781 128.804688 80.292969 128.890625 80.425781 L 129.003906 80.578125 L 130.246094 82.316406 C 130.671875 82.894531 131.058594 83.511719 131.507812 84.058594 L 132.949219 85.601562 C 133.421875 86.128906 133.898438 86.652344 134.464844 87.050781 L 136.078125 88.386719 C 136.648438 88.773438 137.261719 89.089844 137.851562 89.457031 C 138.433594 89.855469 139.078125 90.085938 139.726562 90.328125 C 140.371094 90.578125 141.011719 90.875 141.703125 90.964844 C 142.386719 91.074219 143.0625 91.339844 143.769531 91.359375 C 144.46875 91.394531 145.179688 91.507812 145.890625 91.484375 C 146.605469 91.433594 147.332031 91.425781 148.050781 91.339844 C 148.765625 91.207031 149.488281 91.105469 150.210938 90.945312 C 150.914062 90.746094 151.652344 90.605469 152.351562 90.351562 C 153.046875 90.09375 153.769531 89.875 154.445312 89.550781 C 155.847656 88.984375 157.191406 88.261719 158.488281 87.441406 Z M 158.488281 87.441406 " fill-opacity="1" fill-rule="nonzero"/></g><g fill="#8ddfff" fill-opacity="1"><g transform="translate(131.384159, 140.869035)"><g><path d="M 2.144531 0 L 7.785156 0 C 14.148438 0 20.363281 -4.390625 20.363281 -9.90625 C 20.363281 -14.898438 15.273438 -19.8125 8.910156 -19.8125 L 2.144531 -19.8125 Z M 7.460938 -0.199219 C 5.988281 -0.199219 5.515625 -0.523438 5.515625 -0.847656 L 5.515625 -19.613281 L 8.085938 -19.613281 C 12.851562 -19.613281 16.667969 -14.796875 16.667969 -9.90625 C 16.667969 -4.515625 12.101562 -0.199219 7.460938 -0.199219 Z M 7.460938 -0.199219 "/></g></g></g><g fill="#000000" fill-opacity="1"><g transform="translate(153.122681, 140.869035)"><g><path d="M 7.285156 0.25 C 9.609375 0.25 12.476562 -1.648438 13.078125 -3.570312 L 13 -3.570312 C 12.476562 -1.871094 9.707031 -0.199219 7.4375 -0.199219 C 5.039062 -0.199219 2.695312 -3.542969 2.695312 -6.960938 C 2.695312 -7.785156 2.796875 -8.535156 2.96875 -9.234375 L 13.449219 -9.234375 C 13.175781 -12.027344 10.480469 -13.824219 7.910156 -13.824219 C 4.492188 -13.824219 1.121094 -10.878906 1.121094 -6.363281 C 1.121094 -3.019531 4.167969 0.25 7.285156 0.25 Z M 2.996094 -9.332031 C 3.769531 -12.054688 5.816406 -13.726562 7.886719 -13.726562 C 9.609375 -13.726562 11.453125 -12.003906 11.777344 -9.359375 Z M 2.996094 -9.332031 "/></g></g><g transform="translate(167.32204, 140.869035)"><g><path d="M 1 0 L 2.496094 0 L 2.496094 -10.207031 C 3.617188 -11.652344 5.613281 -13.050781 6.511719 -13.050781 C 7.984375 -13.050781 9.183594 -11.128906 9.183594 -9.160156 L 9.183594 0 L 10.679688 0 L 10.679688 -9.160156 C 10.679688 -11.503906 9.035156 -13.824219 6.988281 -13.824219 C 6.039062 -13.824219 3.816406 -12.152344 2.496094 -10.457031 L 2.496094 -13.574219 L 1.746094 -13.574219 L 0.625 -13.277344 L 0.625 -13.152344 L 0.699219 -13.152344 C 0.847656 -13.101562 1 -12.527344 1 -11.953125 Z M 1 0 "/></g></g></g><g fill="#000000" fill-opacity="1"><g transform="translate(179.100769, 140.869035)"><g><path d="M 5.691406 0.25 C 6.710938 0.25 8.308594 -0.898438 8.910156 -2.070312 L 8.734375 -2.171875 C 8.308594 -1.324219 7.011719 -0.472656 6.140625 -0.472656 C 5.015625 -0.472656 3.917969 -1.621094 3.917969 -3.417969 L 3.96875 -12.777344 L 8.109375 -12.777344 L 8.109375 -13.574219 L 3.96875 -13.574219 L 3.96875 -16.84375 L 3.84375 -16.84375 L 0.824219 -13.25 L 0.824219 -13 L 2.445312 -13 L 2.445312 -3.742188 C 2.445312 -1.324219 4.042969 0.25 5.691406 0.25 Z M 5.691406 0.25 "/></g></g></g><g fill="#000000" fill-opacity="1"><g transform="translate(188.259231, 140.869035)"><g><path d="M 4.367188 0.25 C 5.414062 0.25 7.460938 -0.699219 9.132812 -2.171875 C 9.132812 -1.023438 10.28125 0.125 11.429688 0.125 C 12.378906 0.125 13.5 -1 13.699219 -2.121094 L 13.527344 -2.222656 C 13.402344 -1.570312 12.675781 -0.949219 12.027344 -0.949219 C 11.328125 -0.949219 10.65625 -1.546875 10.65625 -2.171875 L 10.65625 -9.707031 C 10.65625 -12.101562 8.808594 -13.824219 6.914062 -13.824219 C 4.316406 -13.824219 1.773438 -11.203125 1.773438 -10.082031 C 1.773438 -9.558594 2.144531 -9.035156 2.546875 -9.035156 C 2.996094 -9.035156 3.417969 -9.507812 3.417969 -9.78125 C 3.417969 -10.105469 2.917969 -10.78125 2.917969 -11.054688 C 2.917969 -11.855469 4.816406 -13.675781 6.761719 -13.675781 C 7.960938 -13.675781 9.160156 -12.253906 9.160156 -10.257812 L 9.160156 -7.238281 C 3.792969 -6.265625 1.296875 -4.941406 1.296875 -2.246094 C 1.296875 -1 2.820312 0.25 4.367188 0.25 Z M 5.117188 -0.550781 C 3.917969 -0.550781 2.746094 -1.472656 2.746094 -2.421875 C 2.746094 -5.117188 4.765625 -6.363281 9.109375 -7.136719 L 9.132812 -7.136719 L 9.132812 -2.269531 C 7.886719 -1.222656 6.140625 -0.550781 5.117188 -0.550781 Z M 5.117188 -0.550781 "/></g></g><g transform="translate(201.709941, 140.869035)"><g><path d="M 1 0 L 2.496094 0 L 2.496094 -19.8125 L 1.746094 -19.8125 L 0.625 -19.515625 L 0.625 -19.390625 L 0.699219 -19.390625 C 0.847656 -19.339844 1 -18.765625 1 -18.191406 Z M 1 0 "/></g></g></g><g fill="#008cce" fill-opacity="1"><g transform="translate(116.201004, 117.279045)"><g><path d="M 7.464844 0.25 C 10.535156 0.25 13.554688 -2.546875 13.554688 -5.417969 C 13.554688 -7.636719 11.308594 -10.632812 8.488281 -11.65625 C 6.039062 -12.554688 4.09375 -14.550781 4.09375 -15.898438 C 4.09375 -17.871094 5.464844 -19.820312 6.890625 -19.820312 C 7.738281 -19.820312 8.761719 -19.394531 9.660156 -18.769531 C 9.933594 -18.496094 11.058594 -17.246094 12.132812 -16.023438 L 12.304688 -15.824219 L 12.628906 -15.824219 L 12.628906 -18.546875 L 12.503906 -18.546875 L 12.480469 -18.269531 C 12.457031 -17.996094 11.957031 -18.070312 11.433594 -18.421875 C 10.210938 -19.371094 8.386719 -20.09375 6.890625 -20.09375 C 4.144531 -20.09375 1.472656 -17.398438 1.472656 -14.628906 C 1.472656 -12.28125 3.695312 -9.1875 6.464844 -8.1875 C 8.910156 -7.289062 10.859375 -5.542969 10.859375 -4.46875 C 10.859375 -2.269531 9.1875 -0.101562 7.464844 -0.101562 C 6.515625 -0.101562 5.242188 -0.796875 4.144531 -1.796875 C 4.792969 -1.222656 3.59375 -2.746094 1.699219 -4.917969 L 1.523438 -5.117188 L 1.171875 -5.066406 L 1.171875 -1.421875 L 1.296875 -1.421875 L 1.324219 -1.921875 C 1.347656 -2.472656 2.046875 -2.421875 2.746094 -1.871094 C 4.117188 -0.648438 5.992188 0.25 7.464844 0.25 Z M 7.464844 0.25 "/></g></g></g><g fill="#000000" fill-opacity="1"><g transform="translate(130.727567, 117.279045)"><g><path d="M 1 0 L 2.496094 0 L 2.496094 -10.535156 C 3.34375 -11.632812 5.292969 -12.707031 6.390625 -12.707031 C 8.085938 -12.707031 9.1875 -11.355469 9.1875 -9.960938 L 9.1875 0 L 10.683594 0 L 10.683594 -9.960938 C 10.683594 -10.183594 10.660156 -10.410156 10.632812 -10.609375 C 11.507812 -11.683594 13.429688 -12.707031 14.578125 -12.707031 C 16.273438 -12.707031 17.371094 -11.355469 17.371094 -9.960938 L 17.371094 0 L 18.871094 0 L 18.871094 -9.960938 C 18.871094 -11.90625 17.421875 -13.828125 15.175781 -13.828125 C 14.101562 -13.828125 11.855469 -12.304688 10.609375 -10.707031 C 10.285156 -12.355469 8.9375 -13.804688 6.988281 -13.804688 C 5.964844 -13.804688 3.742188 -12.253906 2.496094 -10.660156 L 2.496094 -13.554688 L 1.746094 -13.554688 L 0.625 -13.253906 L 0.625 -13.15625 L 0.699219 -13.15625 C 0.847656 -13.105469 1 -12.53125 1 -11.957031 Z M 1 0 "/></g></g></g><g fill="#000000" fill-opacity="1"><g transform="translate(150.695218, 117.279045)"><g><path d="M 1.996094 -16.449219 C 2.496094 -16.449219 2.96875 -16.921875 2.96875 -17.421875 C 2.96875 -17.921875 2.496094 -18.394531 1.996094 -18.394531 C 1.496094 -18.394531 1.023438 -17.921875 1.023438 -17.421875 C 1.023438 -16.921875 1.496094 -16.449219 1.996094 -16.449219 Z M 1.246094 0 L 2.746094 0 L 2.746094 -13.578125 L 1.996094 -13.578125 L 0.875 -13.277344 L 0.875 -13.15625 L 0.949219 -13.15625 C 1.097656 -13.105469 1.246094 -12.53125 1.246094 -11.957031 Z M 1.246094 0 "/></g></g></g><g fill="#000000" fill-opacity="1"><g transform="translate(154.538991, 117.279045)"><g><path d="M 1 0 L 2.496094 0 L 2.496094 -19.820312 L 1.746094 -19.820312 L 0.625 -19.519531 L 0.625 -19.394531 L 0.699219 -19.394531 C 0.847656 -19.34375 1 -18.769531 1 -18.195312 Z M 1 0 "/></g></g></g><g fill="#000000" fill-opacity="1"><g transform="translate(158.133169, 117.279045)"><g><path d="M 7.289062 0.25 C 9.609375 0.25 12.480469 -1.648438 13.078125 -3.570312 L 13.003906 -3.570312 C 12.480469 -1.871094 9.710938 -0.199219 7.4375 -0.199219 C 5.042969 -0.199219 2.695312 -3.542969 2.695312 -6.964844 C 2.695312 -7.789062 2.796875 -8.535156 2.96875 -9.234375 L 13.453125 -9.234375 C 13.179688 -12.03125 10.484375 -13.828125 7.914062 -13.828125 C 4.492188 -13.828125 1.125 -10.882812 1.125 -6.363281 C 1.125 -3.019531 4.167969 0.25 7.289062 0.25 Z M 2.996094 -9.335938 C 3.769531 -12.054688 5.816406 -13.726562 7.886719 -13.726562 C 9.609375 -13.726562 11.457031 -12.007812 11.78125 -9.359375 Z M 2.996094 -9.335938 "/></g></g></g></svg>